<mxfile host="app.diagrams.net" agent="Mozilla/5.0 (Windows NT 10.0; Win64; x64) AppleWebKit/537.36 (KHTML, like Gecko) Chrome/128.0.0.0 Safari/537.36" version="24.7.16">
  <diagram name="Page-1" id="CvOzHp0B7jKcXnYuVmqv">
    <mxGraphModel dx="1400" dy="696" grid="1" gridSize="10" guides="1" tooltips="1" connect="1" arrows="1" fold="1" page="1" pageScale="1" pageWidth="827" pageHeight="1169" math="0" shadow="0">
      <root>
        <mxCell id="0" />
        <mxCell id="1" parent="0" />
        <mxCell id="lWWIZiCAYR8_xbFaMXe6-23" value="&lt;font style=&quot;font-size: 22px;&quot;&gt;Portland&lt;/font&gt;" style="html=1;verticalLabelPosition=bottom;align=center;labelBackgroundColor=#ffffff;verticalAlign=top;strokeWidth=2;strokeColor=#0080F0;shadow=0;dashed=0;shape=mxgraph.ios7.icons.location;fontSize=22;fontStyle=1" vertex="1" parent="1">
          <mxGeometry x="100" y="370" width="40" height="50" as="geometry" />
        </mxCell>
        <mxCell id="lWWIZiCAYR8_xbFaMXe6-24" value="&lt;font style=&quot;font-size: 22px;&quot;&gt;Los Angeles&lt;/font&gt;" style="html=1;verticalLabelPosition=bottom;align=center;labelBackgroundColor=#ffffff;verticalAlign=top;strokeWidth=2;strokeColor=#0080F0;shadow=0;dashed=0;shape=mxgraph.ios7.icons.location;fontSize=22;fontStyle=1" vertex="1" parent="1">
          <mxGeometry x="160" y="590" width="40" height="50" as="geometry" />
        </mxCell>
        <mxCell id="lWWIZiCAYR8_xbFaMXe6-25" value="&lt;font style=&quot;font-size: 22px;&quot;&gt;Denver&lt;/font&gt;" style="html=1;verticalLabelPosition=bottom;align=center;labelBackgroundColor=#ffffff;verticalAlign=top;strokeWidth=2;strokeColor=#0080F0;shadow=0;dashed=0;shape=mxgraph.ios7.icons.location;fontSize=22;fontStyle=1" vertex="1" parent="1">
          <mxGeometry x="290" y="460" width="40" height="50" as="geometry" />
        </mxCell>
        <mxCell id="lWWIZiCAYR8_xbFaMXe6-26" value="&lt;font style=&quot;font-size: 22px;&quot;&gt;Boston&lt;/font&gt;" style="html=1;verticalLabelPosition=bottom;align=center;labelBackgroundColor=#ffffff;verticalAlign=top;strokeWidth=2;strokeColor=#0080F0;shadow=0;dashed=0;shape=mxgraph.ios7.icons.location;fontSize=22;fontStyle=1" vertex="1" parent="1">
          <mxGeometry x="600" y="350" width="40" height="50" as="geometry" />
        </mxCell>
        <mxCell id="lWWIZiCAYR8_xbFaMXe6-27" value="&lt;font style=&quot;font-size: 22px;&quot;&gt;New York&lt;/font&gt;" style="html=1;verticalLabelPosition=bottom;align=center;labelBackgroundColor=#ffffff;verticalAlign=top;strokeWidth=2;strokeColor=#0080F0;shadow=0;dashed=0;shape=mxgraph.ios7.icons.location;fontSize=22;fontStyle=1" vertex="1" parent="1">
          <mxGeometry x="570" y="460" width="40" height="50" as="geometry" />
        </mxCell>
        <mxCell id="lWWIZiCAYR8_xbFaMXe6-29" value="&lt;font style=&quot;font-size: 22px;&quot;&gt;Austin&lt;/font&gt;" style="html=1;verticalLabelPosition=bottom;align=center;labelBackgroundColor=#ffffff;verticalAlign=top;strokeWidth=2;strokeColor=#0080F0;shadow=0;dashed=0;shape=mxgraph.ios7.icons.location;fontSize=22;fontStyle=1" vertex="1" parent="1">
          <mxGeometry x="430" y="690" width="40" height="50" as="geometry" />
        </mxCell>
        <mxCell id="lWWIZiCAYR8_xbFaMXe6-31" value="" style="shape=umlActor;verticalLabelPosition=bottom;verticalAlign=top;html=1;outlineConnect=0;fontStyle=0;strokeWidth=4;" vertex="1" parent="1">
          <mxGeometry x="120" y="555" width="30" height="60" as="geometry" />
        </mxCell>
        <mxCell id="lWWIZiCAYR8_xbFaMXe6-35" value="" style="endArrow=classic;html=1;rounded=0;strokeWidth=3;" edge="1" parent="1" source="lWWIZiCAYR8_xbFaMXe6-24" target="lWWIZiCAYR8_xbFaMXe6-23">
          <mxGeometry width="50" height="50" relative="1" as="geometry">
            <mxPoint x="190" y="540" as="sourcePoint" />
            <mxPoint x="290" y="550" as="targetPoint" />
          </mxGeometry>
        </mxCell>
        <mxCell id="lWWIZiCAYR8_xbFaMXe6-36" value="" style="endArrow=classic;html=1;rounded=0;strokeWidth=3;" edge="1" parent="1" source="lWWIZiCAYR8_xbFaMXe6-23" target="lWWIZiCAYR8_xbFaMXe6-25">
          <mxGeometry width="50" height="50" relative="1" as="geometry">
            <mxPoint x="183" y="600" as="sourcePoint" />
            <mxPoint x="137" y="430" as="targetPoint" />
          </mxGeometry>
        </mxCell>
        <mxCell id="lWWIZiCAYR8_xbFaMXe6-37" value="" style="endArrow=classic;html=1;rounded=0;strokeWidth=3;" edge="1" parent="1" source="lWWIZiCAYR8_xbFaMXe6-25" target="lWWIZiCAYR8_xbFaMXe6-26">
          <mxGeometry width="50" height="50" relative="1" as="geometry">
            <mxPoint x="150" y="414" as="sourcePoint" />
            <mxPoint x="300" y="486" as="targetPoint" />
          </mxGeometry>
        </mxCell>
        <mxCell id="lWWIZiCAYR8_xbFaMXe6-38" value="" style="endArrow=classic;html=1;rounded=0;strokeWidth=3;" edge="1" parent="1" source="lWWIZiCAYR8_xbFaMXe6-26" target="lWWIZiCAYR8_xbFaMXe6-27">
          <mxGeometry width="50" height="50" relative="1" as="geometry">
            <mxPoint x="340" y="488" as="sourcePoint" />
            <mxPoint x="610" y="392" as="targetPoint" />
          </mxGeometry>
        </mxCell>
        <mxCell id="lWWIZiCAYR8_xbFaMXe6-39" value="" style="endArrow=classic;html=1;rounded=0;strokeWidth=3;" edge="1" parent="1" source="lWWIZiCAYR8_xbFaMXe6-27" target="lWWIZiCAYR8_xbFaMXe6-29">
          <mxGeometry width="50" height="50" relative="1" as="geometry">
            <mxPoint x="623" y="410" as="sourcePoint" />
            <mxPoint x="607" y="470" as="targetPoint" />
          </mxGeometry>
        </mxCell>
        <mxCell id="lWWIZiCAYR8_xbFaMXe6-40" value="" style="endArrow=classic;html=1;rounded=0;strokeWidth=3;" edge="1" parent="1" source="lWWIZiCAYR8_xbFaMXe6-29" target="lWWIZiCAYR8_xbFaMXe6-24">
          <mxGeometry width="50" height="50" relative="1" as="geometry">
            <mxPoint x="450" y="630" as="sourcePoint" />
            <mxPoint x="513" y="660" as="targetPoint" />
          </mxGeometry>
        </mxCell>
      </root>
    </mxGraphModel>
  </diagram>
</mxfile>
